<svg id="SvgjsSvg1033" width="288" height="288" xmlns="http://www.w3.org/2000/svg" version="1.1" xmlns:xlink="http://www.w3.org/1999/xlink" xmlns:svgjs="http://svgjs.com/svgjs"><defs id="SvgjsDefs1034"></defs><g id="SvgjsG1035"><svg xmlns="http://www.w3.org/2000/svg" data-name="Layer 1" viewBox="0 0 181 27" width="288" height="288"><defs><mask id="a" width="4.75" height="6.54" x=".02" y="1.17" maskUnits="userSpaceOnUse"><path fill="#ffffff" fill-rule="evenodd" d="M.02 1.17h4.75V7.7H.02V1.17z" class="colorfff svgShape"></path></mask><mask id="b" width="4.77" height="6.54" x="0" y="1.17" maskUnits="userSpaceOnUse"><g data-name="mask-2" fill="#ffffff" class="color000 svgShape"><path fill="#ffffff" fill-rule="evenodd" d="M.02 1.17h4.75V7.7H.02V1.17z" data-name="path-1" class="colorfff svgShape"></path></g></mask><mask id="c" width="17.55" height="17.86" x="163.33" y="9.12" maskUnits="userSpaceOnUse"><path fill="#ffffff" fill-rule="evenodd" d="M163.33 9.12h17.55v17.86h-17.55V9.12z" class="colorfff svgShape"></path></mask><mask id="d" width="17.55" height="17.88" x="163.33" y="9.12" maskUnits="userSpaceOnUse"><g data-name="mask-4" fill="#ffffff" class="color000 svgShape"><path fill="#ffffff" fill-rule="evenodd" d="M163.33 9.12h17.55v17.86h-17.55V9.12z" data-name="path-3" class="colorfff svgShape"></path></g></mask></defs><path fill="#2e2ea3" fill-rule="evenodd" d="M18.82 14.68a11.52 11.52 0 01-5.29-1.29 9.1 9.1 0 014.81-1.7 1.68 1.68 0 01-.3-1.15 4.13 4.13 0 01.78-2.17 4.05 4.05 0 01.78 2.17 1.59 1.59 0 01-.3 1.15 9.11 9.11 0 014.82 1.7 11.56 11.56 0 01-5.3 1.29zm11.67-3.57a4.53 4.53 0 00.07-.74 4.19 4.19 0 00-4.2-4.18 4.73 4.73 0 00-.93.1A10.09 10.09 0 006 10.05v.18c2.88.78 5.49 3.61 7 4.67a10.25 10.25 0 0011.76 0C27 13.38 28.56 12.94 30 13a3.94 3.94 0 013.76 3.86 3.73 3.73 0 01-3.68 3.78 4.85 4.85 0 01-3.33-1.24.09.09 0 01.1-.15 4.59 4.59 0 004.15.52 2.73 2.73 0 001.55-2.41 2.42 2.42 0 00-2.25-2.58 2.51 2.51 0 00-2 .64 9.21 9.21 0 00-2.11 3C25.3 20.24 23.81 22.24 22 23h8a6 6 0 00.46-11.89zM12.54 20.67c-1-1.23-1.82-2.34-4-5.63S3.15 11.56 2 12.56A6.66 6.66 0 006.58 24H16c-1.36-.58-2.47-2.09-3.46-3.32" class="color2e2ea3 svgShape"></path><g mask="url(#a)" fill="#ffffff" class="color000 svgShape"><path fill="#2e2ea3" fill-rule="evenodd" d="M3.16 4.55a1.65 1.65 0 0 0 1.61-1.69 1.65 1.65 0 0 0-1.61-1.69 1.65 1.65 0 0 0-1.61 1.69 1.65 1.65 0 0 0 1.61 1.69" class="color2e2ea3 svgShape"></path></g><g mask="url(#b)" fill="#ffffff" class="color000 svgShape"><path fill="#2e2ea3" fill-rule="evenodd" d="M1.28 7.7a1.31 1.31 0 0 0 1.28-1.34A1.31 1.31 0 0 0 1.28 5 1.31 1.31 0 0 0 0 6.36 1.31 1.31 0 0 0 1.28 7.7" class="color2e2ea3 svgShape"></path></g><path fill="#2e2ea3" fill-rule="evenodd" d="M2 9a1 1 0 1 0 1-1 1 1 0 0 0-1 1" class="color2e2ea3 svgShape"></path><path fill="#ffffff" fill-rule="evenodd" d="M68.78 9.05h-.56a4.09 4.09 0 00-2.33.61 4.6 4.6 0 00-1.06 1v-.46c0-.38 0-.71-.08-1a.15.15 0 00-.14-.14h-1.45a.16.16 0 00-.15.16v11.57a.16.16 0 00.14.16 3.32 3.32 0 00.42 0h1.19a.16.16 0 00.14-.16v-5.95a4.46 4.46 0 01.91-3.14 3.31 3.31 0 012.44-.92h.5a.17.17 0 00.17-.13 3.57 3.57 0 00.08-.72 4.11 4.11 0 00-.07-.75.17.17 0 00-.15-.13M71.94 14.26a4.78 4.78 0 011-2.58 2.87 2.87 0 012.3-1 2.75 2.75 0 011.37.32 2.81 2.81 0 01.93.81A3.68 3.68 0 0178 13a5.69 5.69 0 01.17 1.23zm6.83-3.67a4.05 4.05 0 00-1.51-1.17 4.74 4.74 0 00-2-.42 5 5 0 00-2.36.52 4.52 4.52 0 00-1.62 1.42 6.28 6.28 0 00-.93 2.1 9.74 9.74 0 00-.35 2.53 9.41 9.41 0 00.33 2.57 5.66 5.66 0 001 2.05 4.7 4.7 0 001.79 1.33 6.35 6.35 0 002.58.48 10.47 10.47 0 001.92-.17 5.88 5.88 0 001.55-.49.16.16 0 00.09-.16c0-.22-.05-.46-.09-.71a3.48 3.48 0 00-.19-.68.18.18 0 00-.15-.1 9.63 9.63 0 01-1.39.41 7.28 7.28 0 01-1.53.15 3.89 3.89 0 01-3-1.09 4.86 4.86 0 01-1-3.26h7.89a.17.17 0 00.16-.16v-1.13a7.63 7.63 0 00-.31-2.24 5 5 0 00-.88-1.78zM89.17 20.05c-.35.07-.71.12-1.07.17s-.84.07-1.3.07a6.56 6.56 0 01-1.08-.09 2.79 2.79 0 01-1-.31 1.86 1.86 0 01-.68-.66 2.3 2.3 0 01-.26-1.17 2 2 0 01.87-1.76 4.39 4.39 0 012.55-.63 10.52 10.52 0 011.09.06l.83.09zM86.48 9a12.05 12.05 0 00-1.81.13 9.75 9.75 0 00-1.48.33.17.17 0 00-.12.16 3.68 3.68 0 00.09.79 2.12 2.12 0 00.21.67.16.16 0 00.14.08 9.48 9.48 0 011.32-.32 10.29 10.29 0 011.64-.13 2.68 2.68 0 012 .68 3 3 0 01.66 2.17v.54l-.77-.1c-.4 0-.88-.06-1.43-.06a7.22 7.22 0 00-2 .26 4.52 4.52 0 00-1.56.8 3.81 3.81 0 00-1 1.32 4 4 0 00-.37 1.79 3.42 3.42 0 001.29 3 5.85 5.85 0 003.44.91 15.55 15.55 0 002.19-.17c.76-.11 1.42-.22 2-.33a.17.17 0 00.13-.17v-8a4.33 4.33 0 00-1.13-3.29A4.8 4.8 0 0086.48 9zM105.16 9a3.51 3.51 0 00-1.2.2 3.45 3.45 0 00-.95.51 4.1 4.1 0 00-.73.71c-.14.17-.28.35-.4.52-.1-.22-.21-.43-.32-.62a2.88 2.88 0 00-.61-.69 2.59 2.59 0 00-.85-.47 4.14 4.14 0 00-2.41 0 3.94 3.94 0 00-1 .52 4.1 4.1 0 00-.75.75 2.75 2.75 0 00-.23.33v-.42c0-.38 0-.7-.06-1a.17.17 0 00-.14-.14h-1.35a.16.16 0 00-.14.16V20.8a.16.16 0 00.13.15h1.5a.16.16 0 00.13-.15v-5.71a7.48 7.48 0 01.22-1.84 4.75 4.75 0 01.63-1.44 3 3 0 01.94-.92 2.23 2.23 0 011.17-.32 1.56 1.56 0 011.41.75 4.61 4.61 0 01.51 2.45v7a.16.16 0 00.13.15h1.12a2.77 2.77 0 00.38 0 .15.15 0 00.13-.15v-6.64a5 5 0 01.18-1.35 3.39 3.39 0 01.52-1.1 2.4 2.4 0 01.82-.73 2.35 2.35 0 011.15-.27 1.8 1.8 0 011.62.8 4.83 4.83 0 01.55 2.58v6.74a.16.16 0 00.13.15h1.5a.16.16 0 00.13-.15v-7.25a5.43 5.43 0 00-.9-3.35 3.46 3.46 0 00-2.96-1.2M128.17 20.05c-.35.07-.71.12-1.07.17s-.84.07-1.3.07a6.56 6.56 0 01-1.08-.09 2.79 2.79 0 01-1-.31 1.86 1.86 0 01-.68-.66 2.3 2.3 0 01-.26-1.17 2 2 0 01.87-1.76 4.39 4.39 0 012.55-.63 10.52 10.52 0 011.09.06l.83.09zM125.48 9a12.05 12.05 0 00-1.81.13 9.75 9.75 0 00-1.48.33.17.17 0 00-.12.16 3.68 3.68 0 00.09.79 2.12 2.12 0 00.21.67.16.16 0 00.14.08 9.48 9.48 0 011.32-.32 10.29 10.29 0 011.64-.13 2.68 2.68 0 012 .68 3 3 0 01.66 2.17v.54l-.81-.08c-.4 0-.88-.06-1.43-.06a7.22 7.22 0 00-2 .26 4.52 4.52 0 00-1.56.8 3.81 3.81 0 00-1 1.32 4 4 0 00-.37 1.77 3.42 3.42 0 001.29 3 5.85 5.85 0 003.44.91 15.55 15.55 0 002.19-.17c.76-.11 1.42-.22 2-.33a.17.17 0 00.13-.17v-8a4.33 4.33 0 00-1.13-3.29 4.8 4.8 0 00-3.4-1.06zM141.85 20.63a3.81 3.81 0 00-.23-.68.15.15 0 00-.14-.09h-.06a7 7 0 01-1.1.3 6.52 6.52 0 01-1.27.12 4.06 4.06 0 01-3-1.15 5.05 5.05 0 01-1.12-3.64 7.31 7.31 0 01.24-1.94 4.25 4.25 0 01.73-1.51 3.3 3.3 0 011.21-1 3.81 3.81 0 011.71-.36 8.38 8.38 0 011.46.12 6.36 6.36 0 011.11.28h.06a.17.17 0 00.15-.11 5.55 5.55 0 00.18-.67 4.36 4.36 0 00.08-.74.17.17 0 00-.11-.16 6.79 6.79 0 00-1.26-.31 10 10 0 00-1.71-.09 6 6 0 00-2.5.5 5.08 5.08 0 00-1.81 1.38 6.22 6.22 0 00-1.1 2.07 8.32 8.32 0 00-.37 2.55 7 7 0 001.52 4.82 5.66 5.66 0 004.42 1.68 8.32 8.32 0 001.64-.15 7.07 7.07 0 001.31-.36.18.18 0 00.11-.19c0-.18-.08-.4-.15-.67M149.67 20.14h-.13a4.43 4.43 0 01-1.39.2 3.21 3.21 0 01-.63-.06 1.08 1.08 0 01-.49-.21 1.09 1.09 0 01-.36-.45 2.14 2.14 0 01-.14-.85v-7.52h3.11a.17.17 0 00.17-.13V9.76a.17.17 0 00-.17-.13h-3.11V6.17a.16.16 0 00-.17-.17h-.09a.17.17 0 00-.12 0l-1.47 1.41a.17.17 0 00-.05.12v2.1h-1.41a.17.17 0 00-.17.13 2.19 2.19 0 000 .3v.74a2.13 2.13 0 000 .32.17.17 0 00.17.13h1.41v7.58a3 3 0 00.9 2.42 3.47 3.47 0 002.31.75 7.33 7.33 0 002-.26.16.16 0 00.12-.18 8.84 8.84 0 00-.24-1.32.22.22 0 00-.09-.1M159.16 19a3.44 3.44 0 01-5.32 0 6.14 6.14 0 01-.84-3.5 6.14 6.14 0 01.89-3.53 3.44 3.44 0 015.32 0 6.14 6.14 0 01.89 3.53 6.14 6.14 0 01-.94 3.5zm1.46-8.14a5 5 0 00-1.72-1.36 5.47 5.47 0 00-2.4-.5 5.55 5.55 0 00-2.41.5 4.91 4.91 0 00-1.73 1.39 6 6 0 00-1 2.07 9.94 9.94 0 000 5.08 6 6 0 001 2.07 4.91 4.91 0 001.73 1.39 5.55 5.55 0 002.41.5 5.47 5.47 0 002.4-.5 5 5 0 001.72-1.39 6.18 6.18 0 001-2.07 9.39 9.39 0 000-5.08 6.18 6.18 0 00-1-2.07z" class="color3f3f3f svgShape"></path><g mask="url(#c)" fill="#ffffff" class="color000 svgShape"><path fill="#ffffff" fill-rule="evenodd" d="M168.49 9.14h-.24a3.6 3.6 0 0 0-2.19.62 4.21 4.21 0 0 0-1 1v-.48q0-.57-.06-1a.17.17 0 0 0-.14-.14h-1.37a.16.16 0 0 0-.14.16v11.78a.16.16 0 0 0 .13.16 3.14 3.14 0 0 0 .4 0H165a.16.16 0 0 0 .13-.16V15a4.73 4.73 0 0 1 .86-3.18 3 3 0 0 1 2.31-.94h.46a.17.17 0 0 0 .16-.14 3.64 3.64 0 0 0 .07-.74 4.24 4.24 0 0 0-.07-.77.16.16 0 0 0-.13-.13z" class="color3f3f3f svgShape"></path></g><g mask="url(#d)" fill="#ffffff" class="color000 svgShape"><path fill="#ffffff" fill-rule="evenodd" d="M180.86 9.25a.16.16 0 0 0-.12-.08 2.6 2.6 0 0 0-.37 0h-.81a2.6 2.6 0 0 0-.37 0 .16.16 0 0 0-.13.11l-3.53 11-3.59-11a.16.16 0 0 0-.13-.11 3 3 0 0 0-.41 0h-.93a2.77 2.77 0 0 0-.39 0 .13.13 0 0 0-.11.08.17.17 0 0 0 0 .14L174 21.13a.16.16 0 0 0 .13.11 2.78 2.78 0 0 0 .4 0h.67l-.84 2.64a2.63 2.63 0 0 1-.63 1.12 1.41 1.41 0 0 1-.93.28 3.51 3.51 0 0 1-.76-.07 2.5 2.5 0 0 1-.51-.15h-.06a.17.17 0 0 0-.14.08 2.77 2.77 0 0 0-.35 1.38.18.18 0 0 0 .11.16c.22.06.49.12.8.18a4.73 4.73 0 0 0 1 .1 3.14 3.14 0 0 0 1.81-.53 3.47 3.47 0 0 0 1.2-1.86l5-15.23a.2.2 0 0 0 0-.13" class="color3f3f3f svgShape"></path></g><path fill="#ffffff" fill-rule="evenodd" d="M57.66 15.67a5.13 5.13 0 01-1.27 2.08 4.63 4.63 0 01-2 1.11 10.16 10.16 0 01-2.69.33h-1.09l-.79-.07V5.89a8 8 0 01.8-.06h1.08a6.67 6.67 0 014.72 1.59c1.12 1 1.69 2.73 1.69 5a10.22 10.22 0 01-.45 3.25zM58 6.26a6.84 6.84 0 00-2.58-1.68A10.47 10.47 0 0051.79 4h-.93l-1 .06-1 .08-.77.09a.16.16 0 00-.13.16v16.18a.16.16 0 00.13.16l.72.1q.43.06.93.09l1 .06h1c5.5.02 8.26-2.86 8.26-8.53a11.7 11.7 0 00-.49-3.52A6.94 6.94 0 0058 6.26zM121 4.13a.17.17 0 00-.16-.13h-8.62a.16.16 0 00-.16.13v16.66a.16.16 0 00.14.16 3.13 3.13 0 00.41 0h.78a3.33 3.33 0 00.41 0 .16.16 0 00.14-.16V13h5.81a.17.17 0 00.17-.13 2.16 2.16 0 000-.3v-.74a2.5 2.5 0 000-.32.17.17 0 00-.17-.13h-5.81V5.63h6.9a.17.17 0 00.16-.14 2 2 0 000-.29v-.74a2.29 2.29 0 000-.33" class="color3f3f3f svgShape"></path></svg></g></svg>